<svg width="611" height="570" viewBox="0 0 611 570" fill="none" xmlns="http://www.w3.org/2000/svg">
<g filter="url(#filter0_dddddddd_643_344)">
<g filter="url(#filter1_ii_643_344)">
<rect x="78.9189" width="452.886" height="933.572" rx="77.1251" fill="#352C40"/>
</g>
<path d="M79.1256 90.5176H86.9905V97.692H79.0059L79.1256 90.5176Z" fill="url(#paint0_linear_643_344)"/>
<path d="M431.362 0L438.537 0.0945847V7.11487L431.362 7.11487V0Z" fill="url(#paint1_linear_643_344)"/>
<rect x="531.805" y="97.692" width="8.07123" height="7.17443" transform="rotate(-180 531.805 97.692)" fill="url(#paint2_linear_643_344)"/>
<rect x="84.9721" y="6.05339" width="440.779" height="921.466" rx="71.0717" fill="black" stroke="#54485F" stroke-width="0.448402"/>
<path fill-rule="evenodd" clip-rule="evenodd" d="M93.7179 45.3682C86.0938 60.3314 86.0938 79.9195 86.0938 119.095V814.477C86.0938 853.653 86.0938 873.241 93.7179 888.204C100.424 901.366 111.125 912.067 124.287 918.774C139.251 926.398 158.839 926.398 198.015 926.398H412.71C451.886 926.398 471.474 926.398 486.437 918.774C499.599 912.067 510.3 901.366 517.006 888.204C524.631 873.241 524.631 853.653 524.631 814.477V119.096C524.631 79.9195 524.631 60.3314 517.006 45.3682C510.3 32.2061 499.599 21.505 486.437 14.7986C471.474 7.17444 451.886 7.17444 412.71 7.17444H351.548C350.557 7.17444 349.791 8.02573 349.315 8.89417C348.706 10.003 347.528 10.7547 346.174 10.7547H263.654C262.3 10.7547 261.121 10.003 260.513 8.89417C260.036 8.02573 259.271 7.17444 258.28 7.17444H198.015C158.839 7.17444 139.251 7.17444 124.287 14.7986C111.125 21.505 100.424 32.2061 93.7179 45.3682Z" fill="black"/>
<path d="M198.015 7.62268H258.28C258.639 7.62275 258.979 7.77594 259.298 8.04944C259.619 8.32492 259.899 8.70628 260.12 9.10999C260.804 10.3564 262.13 11.2028 263.654 11.2028H346.174C347.698 11.2027 349.024 10.3565 349.708 9.10999C349.93 8.70616 350.209 8.32494 350.53 8.04944C350.849 7.77588 351.189 7.62268 351.548 7.62268H412.71C432.305 7.62268 446.974 7.62367 458.616 8.57483C470.253 9.52558 478.826 11.4234 486.233 15.1979C499.311 21.8613 509.944 32.4942 516.607 45.5719C520.382 52.9796 522.28 61.5518 523.23 73.1881C524.182 84.83 524.183 99.5 524.183 119.095V814.477C524.183 834.072 524.182 848.742 523.23 860.383C522.28 872.02 520.382 880.593 516.607 888.001C509.944 901.078 499.311 911.711 486.233 918.375C478.826 922.149 470.253 924.047 458.616 924.998C446.974 925.949 432.305 925.95 412.71 925.95H198.015C178.419 925.95 163.749 925.949 152.107 924.998C140.471 924.047 131.899 922.149 124.491 918.375C111.414 911.711 100.781 901.078 94.1172 888.001C90.3427 880.593 88.4449 872.02 87.4941 860.383C86.543 848.742 86.542 834.072 86.542 814.477V119.095C86.542 99.5 86.543 84.83 87.4941 73.1881C88.4449 61.5518 90.3428 52.9796 94.1172 45.5719C100.781 32.4942 111.414 21.8613 124.491 15.1979C131.899 11.4235 140.471 9.52559 152.107 8.57483C163.749 7.62365 178.419 7.62268 198.015 7.62268Z" stroke="white" stroke-opacity="0.16" stroke-width="0.896803"/>
<path d="M349.667 7.62268C349.351 7.9515 349.094 8.32829 348.899 8.6803C348.361 9.65316 347.319 10.3131 346.12 10.3131H263.706C262.507 10.3131 261.465 9.65316 260.927 8.6803C260.732 8.32829 260.475 7.9515 260.159 7.62268H349.667Z" fill="url(#paint3_linear_643_344)" stroke="black" stroke-width="0.896803"/>
<g filter="url(#filter2_ii_643_344)">
<path d="M534.495 297.739C534.495 296.748 533.692 295.945 532.702 295.945H531.805V407.149H532.702C533.692 407.149 534.495 406.346 534.495 405.355V297.739Z" fill="#172741"/>
<path d="M534.495 297.739C534.495 296.748 533.692 295.945 532.702 295.945H531.805V407.149H532.702C533.692 407.149 534.495 406.346 534.495 405.355V297.739Z" fill="url(#paint4_linear_643_344)"/>
</g>
<g filter="url(#filter3_ii_643_344)">
<path d="M76.2285 180.706C76.2285 179.963 76.8308 179.361 77.5737 179.361H78.9189V215.233H77.5737C76.8308 215.233 76.2285 214.631 76.2285 213.888V180.706Z" fill="#172741"/>
<path d="M76.2285 180.706C76.2285 179.963 76.8308 179.361 77.5737 179.361H78.9189V215.233H77.5737C76.8308 215.233 76.2285 214.631 76.2285 213.888V180.706Z" fill="url(#paint5_linear_643_344)"/>
</g>
<g filter="url(#filter4_ii_643_344)">
<path d="M77.125 247.966C77.125 247.223 77.7273 246.621 78.4702 246.621H78.9186V318.365H78.4702C77.7273 318.365 77.125 317.763 77.125 317.02V247.966Z" fill="#172741"/>
<path d="M77.125 247.966C77.125 247.223 77.7273 246.621 78.4702 246.621H78.9186V318.365H78.4702C77.7273 318.365 77.125 317.763 77.125 317.02V247.966Z" fill="url(#paint6_linear_643_344)"/>
</g>
<g filter="url(#filter5_ii_643_344)">
<path d="M77.125 337.646C77.125 336.904 77.7273 336.301 78.4702 336.301H78.9186V408.046H78.4702C77.7273 408.046 77.125 407.443 77.125 406.7V337.646Z" fill="#172741"/>
<path d="M77.125 337.646C77.125 336.904 77.7273 336.301 78.4702 336.301H78.9186V408.046H78.4702C77.7273 408.046 77.125 407.443 77.125 406.7V337.646Z" fill="url(#paint7_linear_643_344)"/>
</g>
<circle cx="351.548" cy="52.9115" r="8.96803" transform="rotate(-180 351.548 52.9115)" fill="url(#paint8_linear_643_344)"/>
<circle cx="351.547" cy="52.9114" r="3.58721" fill="url(#paint9_radial_643_344)"/>
<g filter="url(#filter6_f_643_344)">
<path d="M351.221 49.9774C350.529 49.9774 349.866 50.2866 349.376 50.8371C348.887 51.3875 348.612 52.134 348.612 52.9124C348.612 53.6908 348.887 54.4374 349.376 54.9878C349.866 55.5382 350.529 55.8474 351.221 55.8474L351.221 52.9124L351.221 49.9774Z" fill="url(#paint10_linear_643_344)"/>
</g>
<g filter="url(#filter7_f_643_344)">
<circle cx="350.895" cy="51.6061" r="0.978331" fill="#50326D"/>
</g>
<g filter="url(#filter8_f_643_344)">
<path d="M351.874 55.8474C352.565 55.8474 353.229 55.5382 353.718 54.9878C354.208 54.4373 354.482 53.6908 354.482 52.9124C354.482 52.134 354.208 51.3875 353.718 50.8371C353.229 50.2866 352.565 49.9774 351.874 49.9774L351.874 52.9124L351.874 55.8474Z" fill="url(#paint11_linear_643_344)"/>
</g>
<g filter="url(#filter9_f_643_344)">
<circle cx="352.2" cy="54.216" r="0.978331" fill="url(#paint12_linear_643_344)"/>
</g>
</g>
<defs>
<filter id="filter0_dddddddd_643_344" x="0.000221252" y="0" width="610.723" height="1099.48" filterUnits="userSpaceOnUse" color-interpolation-filters="sRGB">
<feFlood flood-opacity="0" result="BackgroundImageFix"/>
<feColorMatrix in="SourceAlpha" type="matrix" values="0 0 0 0 0 0 0 0 0 0 0 0 0 0 0 0 0 0 127 0" result="hardAlpha"/>
<feOffset dy="1.78755"/>
<feGaussianBlur stdDeviation="0.759707"/>
<feColorMatrix type="matrix" values="0 0 0 0 0 0 0 0 0 0 0 0 0 0 0 0 0 0 0.0383468 0"/>
<feBlend mode="normal" in2="BackgroundImageFix" result="effect1_dropShadow_643_344"/>
<feColorMatrix in="SourceAlpha" type="matrix" values="0 0 0 0 0 0 0 0 0 0 0 0 0 0 0 0 0 0 127 0" result="hardAlpha"/>
<feOffset dy="4.06144"/>
<feGaussianBlur stdDeviation="1.72611"/>
<feColorMatrix type="matrix" values="0 0 0 0 0 0 0 0 0 0 0 0 0 0 0 0 0 0 0.0557458 0"/>
<feBlend mode="normal" in2="effect1_dropShadow_643_344" result="effect2_dropShadow_643_344"/>
<feColorMatrix in="SourceAlpha" type="matrix" values="0 0 0 0 0 0 0 0 0 0 0 0 0 0 0 0 0 0 127 0" result="hardAlpha"/>
<feOffset dy="7.06876"/>
<feGaussianBlur stdDeviation="3.00422"/>
<feColorMatrix type="matrix" values="0 0 0 0 0 0 0 0 0 0 0 0 0 0 0 0 0 0 0.0686568 0"/>
<feBlend mode="normal" in2="effect2_dropShadow_643_344" result="effect3_dropShadow_643_344"/>
<feColorMatrix in="SourceAlpha" type="matrix" values="0 0 0 0 0 0 0 0 0 0 0 0 0 0 0 0 0 0 127 0" result="hardAlpha"/>
<feOffset dy="11.2294"/>
<feGaussianBlur stdDeviation="4.77248"/>
<feColorMatrix type="matrix" values="0 0 0 0 0 0 0 0 0 0 0 0 0 0 0 0 0 0 0.08 0"/>
<feBlend mode="normal" in2="effect3_dropShadow_643_344" result="effect4_dropShadow_643_344"/>
<feColorMatrix in="SourceAlpha" type="matrix" values="0 0 0 0 0 0 0 0 0 0 0 0 0 0 0 0 0 0 127 0" result="hardAlpha"/>
<feOffset dy="17.3261"/>
<feGaussianBlur stdDeviation="7.36359"/>
<feColorMatrix type="matrix" values="0 0 0 0 0 0 0 0 0 0 0 0 0 0 0 0 0 0 0.0913432 0"/>
<feBlend mode="normal" in2="effect4_dropShadow_643_344" result="effect5_dropShadow_643_344"/>
<feColorMatrix in="SourceAlpha" type="matrix" values="0 0 0 0 0 0 0 0 0 0 0 0 0 0 0 0 0 0 127 0" result="hardAlpha"/>
<feOffset dy="27.036"/>
<feGaussianBlur stdDeviation="11.4903"/>
<feColorMatrix type="matrix" values="0 0 0 0 0 0 0 0 0 0 0 0 0 0 0 0 0 0 0.104254 0"/>
<feBlend mode="normal" in2="effect5_dropShadow_643_344" result="effect6_dropShadow_643_344"/>
<feColorMatrix in="SourceAlpha" type="matrix" values="0 0 0 0 0 0 0 0 0 0 0 0 0 0 0 0 0 0 127 0" result="hardAlpha"/>
<feOffset dy="44.884"/>
<feGaussianBlur stdDeviation="19.0757"/>
<feColorMatrix type="matrix" values="0 0 0 0 0 0 0 0 0 0 0 0 0 0 0 0 0 0 0.121653 0"/>
<feBlend mode="normal" in2="effect6_dropShadow_643_344" result="effect7_dropShadow_643_344"/>
<feColorMatrix in="SourceAlpha" type="matrix" values="0 0 0 0 0 0 0 0 0 0 0 0 0 0 0 0 0 0 127 0" result="hardAlpha"/>
<feOffset dy="89.6804"/>
<feGaussianBlur stdDeviation="38.1141"/>
<feColorMatrix type="matrix" values="0 0 0 0 0 0 0 0 0 0 0 0 0 0 0 0 0 0 0.16 0"/>
<feBlend mode="normal" in2="effect7_dropShadow_643_344" result="effect8_dropShadow_643_344"/>
<feBlend mode="normal" in="SourceGraphic" in2="effect8_dropShadow_643_344" result="shape"/>
</filter>
<filter id="filter1_ii_643_344" x="78.9189" y="0" width="452.886" height="933.573" filterUnits="userSpaceOnUse" color-interpolation-filters="sRGB">
<feFlood flood-opacity="0" result="BackgroundImageFix"/>
<feBlend mode="normal" in="SourceGraphic" in2="BackgroundImageFix" result="shape"/>
<feColorMatrix in="SourceAlpha" type="matrix" values="0 0 0 0 0 0 0 0 0 0 0 0 0 0 0 0 0 0 127 0" result="hardAlpha"/>
<feMorphology radius="2.86977" operator="erode" in="SourceAlpha" result="effect1_innerShadow_643_344"/>
<feOffset/>
<feGaussianBlur stdDeviation="0.448402"/>
<feComposite in2="hardAlpha" operator="arithmetic" k2="-1" k3="1"/>
<feColorMatrix type="matrix" values="0 0 0 0 0.686664 0 0 0 0 0.640174 0 0 0 0 0.745833 0 0 0 1 0"/>
<feBlend mode="normal" in2="shape" result="effect1_innerShadow_643_344"/>
<feColorMatrix in="SourceAlpha" type="matrix" values="0 0 0 0 0 0 0 0 0 0 0 0 0 0 0 0 0 0 127 0" result="hardAlpha"/>
<feMorphology radius="1.07616" operator="erode" in="SourceAlpha" result="effect2_innerShadow_643_344"/>
<feOffset/>
<feGaussianBlur stdDeviation="0.538082"/>
<feComposite in2="hardAlpha" operator="arithmetic" k2="-1" k3="1"/>
<feColorMatrix type="matrix" values="0 0 0 0 0.227307 0 0 0 0 0.169271 0 0 0 0 0.270833 0 0 0 1 0"/>
<feBlend mode="normal" in2="effect1_innerShadow_643_344" result="effect2_innerShadow_643_344"/>
</filter>
<filter id="filter2_ii_643_344" x="531.446" y="295.945" width="3.40787" height="111.204" filterUnits="userSpaceOnUse" color-interpolation-filters="sRGB">
<feFlood flood-opacity="0" result="BackgroundImageFix"/>
<feBlend mode="normal" in="SourceGraphic" in2="BackgroundImageFix" result="shape"/>
<feColorMatrix in="SourceAlpha" type="matrix" values="0 0 0 0 0 0 0 0 0 0 0 0 0 0 0 0 0 0 127 0" result="hardAlpha"/>
<feOffset dx="-0.448402"/>
<feGaussianBlur stdDeviation="0.179361"/>
<feComposite in2="hardAlpha" operator="arithmetic" k2="-1" k3="1"/>
<feColorMatrix type="matrix" values="0 0 0 0 0.779167 0 0 0 0 0.779167 0 0 0 0 0.779167 0 0 0 1 0"/>
<feBlend mode="normal" in2="shape" result="effect1_innerShadow_643_344"/>
<feColorMatrix in="SourceAlpha" type="matrix" values="0 0 0 0 0 0 0 0 0 0 0 0 0 0 0 0 0 0 127 0" result="hardAlpha"/>
<feOffset dx="0.358721"/>
<feGaussianBlur stdDeviation="0.179361"/>
<feComposite in2="hardAlpha" operator="arithmetic" k2="-1" k3="1"/>
<feColorMatrix type="matrix" values="0 0 0 0 0.133333 0 0 0 0 0.113725 0 0 0 0 0.207843 0 0 0 0.6 0"/>
<feBlend mode="normal" in2="effect1_innerShadow_643_344" result="effect2_innerShadow_643_344"/>
</filter>
<filter id="filter3_ii_643_344" x="75.8698" y="179.361" width="3.40787" height="35.8722" filterUnits="userSpaceOnUse" color-interpolation-filters="sRGB">
<feFlood flood-opacity="0" result="BackgroundImageFix"/>
<feBlend mode="normal" in="SourceGraphic" in2="BackgroundImageFix" result="shape"/>
<feColorMatrix in="SourceAlpha" type="matrix" values="0 0 0 0 0 0 0 0 0 0 0 0 0 0 0 0 0 0 127 0" result="hardAlpha"/>
<feOffset dx="0.896803"/>
<feGaussianBlur stdDeviation="0.179361"/>
<feComposite in2="hardAlpha" operator="arithmetic" k2="-1" k3="1"/>
<feColorMatrix type="matrix" values="0 0 0 0 0.779167 0 0 0 0 0.779167 0 0 0 0 0.779167 0 0 0 1 0"/>
<feBlend mode="normal" in2="shape" result="effect1_innerShadow_643_344"/>
<feColorMatrix in="SourceAlpha" type="matrix" values="0 0 0 0 0 0 0 0 0 0 0 0 0 0 0 0 0 0 127 0" result="hardAlpha"/>
<feOffset dx="-0.358721"/>
<feGaussianBlur stdDeviation="0.179361"/>
<feComposite in2="hardAlpha" operator="arithmetic" k2="-1" k3="1"/>
<feColorMatrix type="matrix" values="0 0 0 0 0.133333 0 0 0 0 0.113725 0 0 0 0 0.207843 0 0 0 0.6 0"/>
<feBlend mode="normal" in2="effect1_innerShadow_643_344" result="effect2_innerShadow_643_344"/>
</filter>
<filter id="filter4_ii_643_344" x="76.7663" y="246.621" width="2.51139" height="71.7443" filterUnits="userSpaceOnUse" color-interpolation-filters="sRGB">
<feFlood flood-opacity="0" result="BackgroundImageFix"/>
<feBlend mode="normal" in="SourceGraphic" in2="BackgroundImageFix" result="shape"/>
<feColorMatrix in="SourceAlpha" type="matrix" values="0 0 0 0 0 0 0 0 0 0 0 0 0 0 0 0 0 0 127 0" result="hardAlpha"/>
<feOffset dx="0.448402"/>
<feGaussianBlur stdDeviation="0.179361"/>
<feComposite in2="hardAlpha" operator="arithmetic" k2="-1" k3="1"/>
<feColorMatrix type="matrix" values="0 0 0 0 0.779167 0 0 0 0 0.779167 0 0 0 0 0.779167 0 0 0 1 0"/>
<feBlend mode="normal" in2="shape" result="effect1_innerShadow_643_344"/>
<feColorMatrix in="SourceAlpha" type="matrix" values="0 0 0 0 0 0 0 0 0 0 0 0 0 0 0 0 0 0 127 0" result="hardAlpha"/>
<feOffset dx="-0.358721"/>
<feGaussianBlur stdDeviation="0.179361"/>
<feComposite in2="hardAlpha" operator="arithmetic" k2="-1" k3="1"/>
<feColorMatrix type="matrix" values="0 0 0 0 0.133333 0 0 0 0 0.113725 0 0 0 0 0.207843 0 0 0 0.6 0"/>
<feBlend mode="normal" in2="effect1_innerShadow_643_344" result="effect2_innerShadow_643_344"/>
</filter>
<filter id="filter5_ii_643_344" x="76.7663" y="336.301" width="2.51139" height="71.7444" filterUnits="userSpaceOnUse" color-interpolation-filters="sRGB">
<feFlood flood-opacity="0" result="BackgroundImageFix"/>
<feBlend mode="normal" in="SourceGraphic" in2="BackgroundImageFix" result="shape"/>
<feColorMatrix in="SourceAlpha" type="matrix" values="0 0 0 0 0 0 0 0 0 0 0 0 0 0 0 0 0 0 127 0" result="hardAlpha"/>
<feOffset dx="0.448402"/>
<feGaussianBlur stdDeviation="0.179361"/>
<feComposite in2="hardAlpha" operator="arithmetic" k2="-1" k3="1"/>
<feColorMatrix type="matrix" values="0 0 0 0 0.779167 0 0 0 0 0.779167 0 0 0 0 0.779167 0 0 0 1 0"/>
<feBlend mode="normal" in2="shape" result="effect1_innerShadow_643_344"/>
<feColorMatrix in="SourceAlpha" type="matrix" values="0 0 0 0 0 0 0 0 0 0 0 0 0 0 0 0 0 0 127 0" result="hardAlpha"/>
<feOffset dx="-0.358721"/>
<feGaussianBlur stdDeviation="0.179361"/>
<feComposite in2="hardAlpha" operator="arithmetic" k2="-1" k3="1"/>
<feColorMatrix type="matrix" values="0 0 0 0 0.133333 0 0 0 0 0.113725 0 0 0 0 0.207843 0 0 0 0.6 0"/>
<feBlend mode="normal" in2="effect1_innerShadow_643_344" result="effect2_innerShadow_643_344"/>
</filter>
<filter id="filter6_f_643_344" x="347.702" y="49.0666" width="4.42993" height="7.69153" filterUnits="userSpaceOnUse" color-interpolation-filters="sRGB">
<feFlood flood-opacity="0" result="BackgroundImageFix"/>
<feBlend mode="normal" in="SourceGraphic" in2="BackgroundImageFix" result="shape"/>
<feGaussianBlur stdDeviation="0.455384" result="effect1_foregroundBlur_643_344"/>
</filter>
<filter id="filter7_f_643_344" x="346.722" y="47.4329" width="8.34684" height="8.34647" filterUnits="userSpaceOnUse" color-interpolation-filters="sRGB">
<feFlood flood-opacity="0" result="BackgroundImageFix"/>
<feBlend mode="normal" in="SourceGraphic" in2="BackgroundImageFix" result="shape"/>
<feGaussianBlur stdDeviation="1.59745" result="effect1_foregroundBlur_643_344"/>
</filter>
<filter id="filter8_f_643_344" x="350.963" y="49.0666" width="4.42993" height="7.69153" filterUnits="userSpaceOnUse" color-interpolation-filters="sRGB">
<feFlood flood-opacity="0" result="BackgroundImageFix"/>
<feBlend mode="normal" in="SourceGraphic" in2="BackgroundImageFix" result="shape"/>
<feGaussianBlur stdDeviation="0.455384" result="effect1_foregroundBlur_643_344"/>
</filter>
<filter id="filter9_f_643_344" x="350.157" y="52.1727" width="4.08697" height="4.0866" filterUnits="userSpaceOnUse" color-interpolation-filters="sRGB">
<feFlood flood-opacity="0" result="BackgroundImageFix"/>
<feBlend mode="normal" in="SourceGraphic" in2="BackgroundImageFix" result="shape"/>
<feGaussianBlur stdDeviation="0.532484" result="effect1_foregroundBlur_643_344"/>
</filter>
<linearGradient id="paint0_linear_643_344" x1="78.9193" y1="95.0016" x2="86.9906" y2="95.0016" gradientUnits="userSpaceOnUse">
<stop stop-color="#403548"/>
<stop offset="0.221502" stop-color="#7F7386"/>
<stop offset="0.446858" stop-color="#352C40"/>
</linearGradient>
<linearGradient id="paint1_linear_643_344" x1="434.95" y1="-0.188023" x2="434.95" y2="7.11487" gradientUnits="userSpaceOnUse">
<stop stop-color="#403548"/>
<stop offset="0.261922" stop-color="#7F7386"/>
<stop offset="0.510676" stop-color="#352C40"/>
</linearGradient>
<linearGradient id="paint2_linear_643_344" x1="531.805" y1="102.176" x2="539.876" y2="102.176" gradientUnits="userSpaceOnUse">
<stop stop-color="#403548"/>
<stop offset="0.221502" stop-color="#7F7386"/>
<stop offset="0.446858" stop-color="#352C40"/>
</linearGradient>
<linearGradient id="paint3_linear_643_344" x1="304.91" y1="7.17444" x2="304.91" y2="10.7687" gradientUnits="userSpaceOnUse">
<stop offset="0.119792"/>
<stop offset="1" stop-color="#303030"/>
</linearGradient>
<linearGradient id="paint4_linear_643_344" x1="533.15" y1="295.945" x2="533.15" y2="407.149" gradientUnits="userSpaceOnUse">
<stop stop-color="#C7C7C7"/>
<stop offset="0.0375745" stop-color="#221D35" stop-opacity="0.65"/>
<stop offset="0.40625" stop-color="#221D35" stop-opacity="0"/>
<stop offset="0.604167" stop-color="#221D35" stop-opacity="0"/>
<stop offset="0.973829" stop-color="#221D35" stop-opacity="0.65"/>
<stop offset="1" stop-color="#C7C7C7"/>
</linearGradient>
<linearGradient id="paint5_linear_643_344" x1="77.5737" y1="179.361" x2="77.5737" y2="215.233" gradientUnits="userSpaceOnUse">
<stop stop-color="#C7C7C7"/>
<stop offset="0.0833333" stop-color="#221D35" stop-opacity="0.65"/>
<stop offset="0.40625" stop-color="white" stop-opacity="0"/>
<stop offset="0.604167" stop-color="white" stop-opacity="0"/>
<stop offset="0.916667" stop-color="#221D35" stop-opacity="0.65"/>
<stop offset="1" stop-color="#C7C7C7"/>
</linearGradient>
<linearGradient id="paint6_linear_643_344" x1="78.0218" y1="246.621" x2="78.0218" y2="318.365" gradientUnits="userSpaceOnUse">
<stop stop-color="#C7C7C7"/>
<stop offset="0.0376259" stop-color="#221D35" stop-opacity="0.65"/>
<stop offset="0.40625" stop-color="#221D35" stop-opacity="0"/>
<stop offset="0.604167" stop-color="#221D35" stop-opacity="0"/>
<stop offset="0.961695" stop-color="#221D35" stop-opacity="0.65"/>
<stop offset="1" stop-color="#C7C7C7"/>
</linearGradient>
<linearGradient id="paint7_linear_643_344" x1="78.0218" y1="336.301" x2="78.0218" y2="408.046" gradientUnits="userSpaceOnUse">
<stop stop-color="#C7C7C7"/>
<stop offset="0.0375745" stop-color="#221D35" stop-opacity="0.65"/>
<stop offset="0.40625" stop-color="#221D35" stop-opacity="0"/>
<stop offset="0.604167" stop-color="#221D35" stop-opacity="0"/>
<stop offset="0.973829" stop-color="#221D35" stop-opacity="0.65"/>
<stop offset="1" stop-color="#C7C7C7"/>
</linearGradient>
<linearGradient id="paint8_linear_643_344" x1="344.162" y1="48.1637" x2="358.405" y2="56.6042" gradientUnits="userSpaceOnUse">
<stop stop-color="#222222"/>
<stop offset="1" stop-color="#0B0B0B"/>
</linearGradient>
<radialGradient id="paint9_radial_643_344" cx="0" cy="0" r="1" gradientUnits="userSpaceOnUse" gradientTransform="translate(351.547 52.5853) rotate(37.875) scale(3.71823 3.74571)">
<stop stop-color="#152457"/>
<stop offset="1"/>
</radialGradient>
<linearGradient id="paint10_linear_643_344" x1="349.265" y1="50.6296" x2="350.895" y2="55.8474" gradientUnits="userSpaceOnUse">
<stop stop-color="#20569B"/>
<stop offset="0.677083" stop-color="#061127"/>
</linearGradient>
<linearGradient id="paint11_linear_643_344" x1="353.83" y1="55.1952" x2="352.2" y2="49.9774" gradientUnits="userSpaceOnUse">
<stop stop-color="#3D6495"/>
<stop offset="0.71875" stop-color="#061127"/>
</linearGradient>
<linearGradient id="paint12_linear_643_344" x1="353.504" y1="54.8682" x2="352.2" y2="53.2377" gradientUnits="userSpaceOnUse">
<stop stop-color="#3291AF"/>
<stop offset="1" stop-color="#3291AF" stop-opacity="0"/>
</linearGradient>
</defs>
</svg>
